<?xml version="1.0" encoding="UTF-8" standalone="no"?>
<svg
   viewBox="0 0 20 20"
   version="1.1"
   id="svg5434"
   sodipodi:docname="full_support.svg"
   width="20"
   height="20"
   inkscape:version="1.1 (ce6663b3b7, 2021-05-25)"
   xmlns:inkscape="http://www.inkscape.org/namespaces/inkscape"
   xmlns:sodipodi="http://sodipodi.sourceforge.net/DTD/sodipodi-0.dtd"
   xmlns="http://www.w3.org/2000/svg"
   xmlns:svg="http://www.w3.org/2000/svg"
   xmlns:rdf="http://www.w3.org/1999/02/22-rdf-syntax-ns#"
   xmlns:cc="http://creativecommons.org/ns#"
   xmlns:dc="http://purl.org/dc/elements/1.1/">
  <metadata
     id="metadata5440">
    <rdf:RDF>
      <cc:Work
         rdf:about="">
        <dc:format>image/svg+xml</dc:format>
        <dc:type
           rdf:resource="http://purl.org/dc/dcmitype/StillImage" />
      </cc:Work>
    </rdf:RDF>
  </metadata>
  <defs
     id="defs5438" />
  <sodipodi:namedview
     pagecolor="#ffffff"
     bordercolor="#666666"
     borderopacity="1"
     objecttolerance="10"
     gridtolerance="10"
     guidetolerance="10"
     inkscape:pageopacity="0"
     inkscape:pageshadow="2"
     inkscape:window-width="1848"
     inkscape:window-height="1016"
     id="namedview5436"
     showgrid="false"
     inkscape:zoom="2.6074563"
     inkscape:cx="53.116903"
     inkscape:cy="-16.682926"
     inkscape:window-x="72"
     inkscape:window-y="27"
     inkscape:window-maximized="1"
     inkscape:current-layer="svg5434"
     inkscape:pagecheckerboard="0" />
  <path
     d="m 19.5,10 c 0,5.24672 -4.25328,9.5 -9.5,9.5 -5.24672,0 -9.5,-4.25328 -9.5,-9.5 0,-5.24672 4.25328,-9.5 9.5,-9.5 5.24672,0 9.5,4.25328 9.5,9.5 z M 8.901141,15.03017 15.949528,7.98179 c 0.239339,-0.23934 0.239339,-0.62743 0,-0.86676 l -0.86676,-0.86676 c -0.239339,-0.23938 -0.627421,-0.23938 -0.866798,0 L 8.467742,11.99646 5.78403,9.31274 c -0.239338,-0.23933 -0.627421,-0.23933 -0.866798,0 l -0.86676,0.86676 c -0.239339,0.23934 -0.239339,0.62743 0,0.86676 l 3.983871,3.98388 c 0.239377,0.23937 0.627421,0.23937 0.866798,3e-5 z"
     id="path5432"
     style="fill:#48b400;fill-opacity:1;stroke-width:0.03830645"
     inkscape:connector-curvature="0" />
</svg>
