<?xml version="1.0" encoding="UTF-8" standalone="no"?>
<svg
   viewBox="0 0 20 20"
   version="1.1"
   id="svg6249"
   sodipodi:docname="no_data.svg"
   width="20"
   height="20"
   inkscape:version="1.1 (ce6663b3b7, 2021-05-25)"
   xmlns:inkscape="http://www.inkscape.org/namespaces/inkscape"
   xmlns:sodipodi="http://sodipodi.sourceforge.net/DTD/sodipodi-0.dtd"
   xmlns="http://www.w3.org/2000/svg"
   xmlns:svg="http://www.w3.org/2000/svg"
   xmlns:rdf="http://www.w3.org/1999/02/22-rdf-syntax-ns#"
   xmlns:cc="http://creativecommons.org/ns#"
   xmlns:dc="http://purl.org/dc/elements/1.1/">
  <metadata
     id="metadata6255">
    <rdf:RDF>
      <cc:Work
         rdf:about="">
        <dc:format>image/svg+xml</dc:format>
        <dc:type
           rdf:resource="http://purl.org/dc/dcmitype/StillImage" />
      </cc:Work>
    </rdf:RDF>
  </metadata>
  <defs
     id="defs6253" />
  <sodipodi:namedview
     pagecolor="#ffffff"
     bordercolor="#666666"
     borderopacity="1"
     objecttolerance="10"
     gridtolerance="10"
     guidetolerance="10"
     inkscape:pageopacity="0"
     inkscape:pageshadow="2"
     inkscape:window-width="1848"
     inkscape:window-height="1016"
     id="namedview6251"
     showgrid="false"
     inkscape:zoom="7.375"
     inkscape:cx="-32.338983"
     inkscape:cy="6.3050848"
     inkscape:window-x="72"
     inkscape:window-y="27"
     inkscape:window-maximized="1"
     inkscape:current-layer="svg6249"
     inkscape:pagecheckerboard="0" />
  <path
     style="fill:#ef5f00;fill-opacity:1;stroke-width:0.03830645"
     d="M 10 0.5 C 4.753663 0.5 0.5 4.7552 0.5 10 C 0.5 15.24787 4.753663 19.5 10 19.5 C 15.246337 19.5 19.5 15.24787 19.5 10 C 19.5 4.7552 15.246337 0.5 10 0.5 z M 10 2.3378906 C 14.232518 2.3378906 17.662109 5.76603 17.662109 10 C 17.662109 14.23401 14.235506 17.662109 10 17.662109 C 5.765911 17.662109 2.3378906 14.23551 2.3378906 10 C 2.3378906 5.76733 5.766065 2.3378906 10 2.3378906 z M 10.222656 4.484375 C 8.4278454 4.484375 7.2742076 5.2295837 6.3691406 6.5585938 C 6.2309696 6.7615038 6.2750721 7.0372269 6.4707031 7.1855469 L 7.5371094 7.9941406 C 7.7365334 8.1453006 8.0203714 8.1101925 8.1757812 7.9140625 C 8.7522164 7.1865525 9.1605402 6.765625 10.048828 6.765625 C 10.730108 6.765625 11.574219 7.2046044 11.574219 7.8652344 C 11.574219 8.3646744 11.16098 8.6209169 10.488281 8.9980469 C 9.7038035 9.4378769 8.6660156 9.9842452 8.6660156 11.353516 L 8.6660156 11.685547 C 8.6660156 11.939407 8.871143 12.144531 9.125 12.144531 L 10.875 12.144531 C 11.128857 12.144531 11.333984 11.939407 11.333984 11.685547 L 11.333984 11.443359 C 11.333984 10.494159 14.107422 10.453296 14.107422 7.8847656 C 14.107422 5.9504456 12.102391 4.484375 10.222656 4.484375 z M 10 12.681641 C 9.112861 12.681641 8.390625 13.403876 8.390625 14.291016 C 8.390625 15.178156 9.112861 15.898438 10 15.898438 C 10.887139 15.898438 11.609375 15.178156 11.609375 14.291016 C 11.609375 13.403876 10.887139 12.681641 10 12.681641 z "
     id="path6247" />
</svg>
