<?xml version="1.0" encoding="UTF-8" standalone="no"?>
<svg
   viewBox="0 0 20 20"
   version="1.1"
   id="svg5434"
   sodipodi:docname="not_applicable.svg"
   width="20"
   height="20"
   inkscape:version="1.1 (ce6663b3b7, 2021-05-25)"
   xmlns:inkscape="http://www.inkscape.org/namespaces/inkscape"
   xmlns:sodipodi="http://sodipodi.sourceforge.net/DTD/sodipodi-0.dtd"
   xmlns="http://www.w3.org/2000/svg"
   xmlns:svg="http://www.w3.org/2000/svg"
   xmlns:rdf="http://www.w3.org/1999/02/22-rdf-syntax-ns#"
   xmlns:cc="http://creativecommons.org/ns#"
   xmlns:dc="http://purl.org/dc/elements/1.1/">
  <metadata
     id="metadata5440">
    <rdf:RDF>
      <cc:Work
         rdf:about="">
        <dc:format>image/svg+xml</dc:format>
        <dc:type
           rdf:resource="http://purl.org/dc/dcmitype/StillImage" />
      </cc:Work>
    </rdf:RDF>
  </metadata>
  <defs
     id="defs5438" />
  <sodipodi:namedview
     pagecolor="#ffffff"
     bordercolor="#666666"
     borderopacity="1"
     objecttolerance="10"
     gridtolerance="10"
     guidetolerance="10"
     inkscape:pageopacity="0"
     inkscape:pageshadow="2"
     inkscape:window-width="1848"
     inkscape:window-height="1016"
     id="namedview5436"
     showgrid="false"
     inkscape:zoom="7.375"
     inkscape:cx="-5.8983051"
     inkscape:cy="46.033898"
     inkscape:window-x="72"
     inkscape:window-y="27"
     inkscape:window-maximized="1"
     inkscape:current-layer="svg5434"
     inkscape:pagecheckerboard="0" />
  <path
     id="rect3438"
     style="fill:#999999;stroke-width:4.32548;stroke-linejoin:round"
     d="M 4.1640626,0.5 C 2.1341696,0.5 0.50000005,2.13417 0.50000005,4.164063 V 15.835938 C 0.50000005,17.865831 2.1341696,19.5 4.1640626,19.5 H 15.835938 C 17.865831,19.5 19.5,17.865831 19.5,15.835938 V 4.164063 C 19.5,2.13417 17.865831,0.5 15.835938,0.5 Z M 2.4394532,4.798829 h 2.0117187 l 1.5117188,3.787109 c 0.4993128,1.206672 0.9151455,2.440696 1.3867187,4.132812 h 0.027344 C 7.3076042,11.775604 7.2390728,10.76425 7.1835938,9.765625 7.1281138,8.766999 7.0859376,7.767168 7.0859376,6.837891 V 4.798829 H 9.0292969 V 15.201172 H 7.0039063 L 5.4921876,11.498047 C 4.9790049,10.263634 4.5631722,9.001872 4.1054688,7.365235 h -0.029297 c 0.069349,0.859928 0.1535052,1.914646 0.2089844,2.96875 0.05548,1.040235 0.097656,2.079921 0.097656,2.912109 v 1.955078 h -1.943359 z m 10.1386718,0 h 2.623047 l 2.357422,10.402343 h -2.080078 l -0.513672,-2.634765 h -2.275391 l -0.511719,2.634765 h -2.082031 z m 1.263672,1.152343 c -0.02774,0.221917 -0.05644,0.457573 -0.07031,0.69336 -0.05548,0.485443 -0.09627,0.955963 -0.193359,1.441406 l -0.582031,2.955078 h 1.664062 L 14.132816,8.085938 C 14.035726,7.600495 13.992983,7.129975 13.937503,6.644532 13.923633,6.408745 13.896883,6.173089 13.869143,5.951172 Z" />
  <g
     aria-label="NA"
     id="text4863"
     style="font-size:13.8698px;line-height:1.25;font-family:Inconsolata;-inkscape-font-specification:Inconsolata;stroke-width:0.346746" />
</svg>
