<?xml version="1.0" encoding="UTF-8" standalone="no"?>
<svg
   viewBox="0 0 20 20"
   version="1.1"
   id="svg6152"
   sodipodi:docname="probably_supported.svg"
   width="20"
   height="20"
   inkscape:version="1.1 (ce6663b3b7, 2021-05-25)"
   xmlns:inkscape="http://www.inkscape.org/namespaces/inkscape"
   xmlns:sodipodi="http://sodipodi.sourceforge.net/DTD/sodipodi-0.dtd"
   xmlns="http://www.w3.org/2000/svg"
   xmlns:svg="http://www.w3.org/2000/svg"
   xmlns:rdf="http://www.w3.org/1999/02/22-rdf-syntax-ns#"
   xmlns:cc="http://creativecommons.org/ns#"
   xmlns:dc="http://purl.org/dc/elements/1.1/">
  <metadata
     id="metadata6158">
    <rdf:RDF>
      <cc:Work
         rdf:about="">
        <dc:format>image/svg+xml</dc:format>
        <dc:type
           rdf:resource="http://purl.org/dc/dcmitype/StillImage" />
      </cc:Work>
    </rdf:RDF>
  </metadata>
  <defs
     id="defs6156" />
  <sodipodi:namedview
     pagecolor="#ffffff"
     bordercolor="#666666"
     borderopacity="1"
     objecttolerance="10"
     gridtolerance="10"
     guidetolerance="10"
     inkscape:pageopacity="0"
     inkscape:pageshadow="2"
     inkscape:window-width="1848"
     inkscape:window-height="1016"
     id="namedview6154"
     showgrid="false"
     inkscape:zoom="5.2149125"
     inkscape:cx="4.8898232"
     inkscape:cy="32.311185"
     inkscape:window-x="72"
     inkscape:window-y="27"
     inkscape:window-maximized="1"
     inkscape:current-layer="svg6152"
     inkscape:pagecheckerboard="0" />
  <path
     d="m 10,0.5 c -5.24672,0 -9.5,4.25328 -9.5,9.5 0,5.24672 4.25328,9.5 9.5,9.5 5.24672,0 9.5,-4.25328 9.5,-9.5 0,-5.24672 -4.25328,-9.5 -9.5,-9.5 z m 0,1.83871 c 4.234089,0 7.66129,3.42655 7.66129,7.66129 0,4.23409 -3.42655,7.66129 -7.66129,7.66129 C 5.765911,17.66129 2.3387097,14.23474 2.3387097,10 2.3387097,5.76591 5.76526,2.33871 10,2.33871 M 15.370718,7.32878 14.507444,6.45853 C 14.328667,6.2783 14.037615,6.27711 13.857383,6.45553 L 8.44269,11.8267 6.15227,9.5177 C 5.973494,9.33747 5.682442,9.33629 5.50221,9.5147 l -0.870285,0.86328 c -0.180231,0.17877 -0.181419,0.46982 -0.0026,0.65009 l 3.477498,3.50566 c 0.178776,0.18023 0.469828,0.18142 0.65006,0.003 l 6.611272,-6.55821 c 0.180194,-0.17882 0.181343,-0.46987 0.0026,-0.6501 z"
     id="path6150"
     style="fill:#009dc5;fill-opacity:1;stroke-width:0.03830645"
     inkscape:connector-curvature="0" />
</svg>
